<svg xmlns="http://www.w3.org/2000/svg" width="218.524" height="122.853" viewBox="0 0 218.524 122.853">
  <g id="Group_21625" data-name="Group 21625" transform="translate(-618.042 41.072)">
    <path id="Path_26187" data-name="Path 26187" d="M864.452,176V165.759h3.211a3.279,3.279,0,0,1,2.33.795,2.687,2.687,0,0,1,.881,2.048,2.952,2.952,0,0,1-.442,1.573,2.82,2.82,0,0,1-1.229,1,6.111,6.111,0,0,1-2.208.307h-1.073V175.9Zm2.986-8.961h-1.515v3.191h1.589a2.045,2.045,0,0,0,1.372-.43,1.462,1.462,0,0,0,.491-1.184c0-1.036-.655-1.577-2.048-1.577Zm7.372,2.167a3.492,3.492,0,0,1,2.58.987,3.3,3.3,0,0,1,1,2.457,3.182,3.182,0,0,1-1.024,2.412,3.623,3.623,0,0,1-2.6.962,3.55,3.55,0,0,1-2.539-.962,3.477,3.477,0,0,1,0-4.915,3.552,3.552,0,0,1,2.58-.983Zm0,1.208a2.048,2.048,0,0,0-1.556.631,2.351,2.351,0,0,0,0,3.17,2.4,2.4,0,0,0,3.232,0,2.3,2.3,0,0,0-.021-3.15,2.257,2.257,0,0,0-1.638-.631Zm13.294-1.126h1.409l-2.945,6.832h-.512l-2.048-4.685-2.048,4.685h-.43l-2.986-6.832h1.433l1.757,4.1,1.7-4.1h1l1.7,4.1,1.757-4.1Zm7.782,3.457h-4.7a2.22,2.22,0,0,0,.651,1.556,2.165,2.165,0,0,0,1.536.573,3.925,3.925,0,0,0,2.412-.819v1.306a4.4,4.4,0,0,1-2.617.758,3.035,3.035,0,0,1-2.908-1.72,3.858,3.858,0,0,1-.41-1.8,3.584,3.584,0,0,1,.86-2.494,2.869,2.869,0,0,1,2.269-.962,2.693,2.693,0,0,1,2.048.922,3.793,3.793,0,0,1,.795,2.515v.168Zm-4.706-.8h3.412a2.049,2.049,0,0,0-.471-1.229,1.778,1.778,0,0,0-2.31,0,2.175,2.175,0,0,0-.61,1.212Zm7.569-2.666v1.515h0c.651-1.036,1.286-1.556,1.941-1.556a2.4,2.4,0,0,1,1.577.758l-.713,1.139a2.051,2.051,0,0,0-1.29-.655,1.337,1.337,0,0,0-1.1.614,2.347,2.347,0,0,0-.471,1.45v3.539h-1.335v-6.811Zm6.143-3.49h8.539v1.229h-3.551v8.916h-1.454v-8.9H904.9v-1.249Zm10.694,3.473a3.49,3.49,0,0,1,2.56,1,3.3,3.3,0,0,1,1.016,2.457,3.1,3.1,0,0,1-1.036,2.412,3.537,3.537,0,0,1-2.576.962,3.42,3.42,0,0,1-2.588-5.82l.053-.049a3.529,3.529,0,0,1,2.556-.983Zm0,1.229a2.049,2.049,0,0,0-1.573.635,2.177,2.177,0,0,0-.614,1.593,2.046,2.046,0,0,0,.635,1.577,2.213,2.213,0,0,0,1.618.614,2.169,2.169,0,0,0,1.593-.635,2.22,2.22,0,0,0-1.638-3.784Zm9.326-4.681H930.7v1.229h-4.3v3.109h4.1v1.311h-4.1v3.191h4.46v1.307h-5.935V165.771Zm12.823,5.324v4.886H936.4v-3.76a2.991,2.991,0,0,0-.287-1.552,1.16,1.16,0,0,0-1.061-.446,1.692,1.692,0,0,0-.758.184,4.637,4.637,0,0,0-.8.688v4.886H932.17v-6.75H933.5v.881a2.927,2.927,0,0,1,2.048-1.024,2.167,2.167,0,0,1,2.048,1.229,3.016,3.016,0,0,1,2.232-1.229,2.05,2.05,0,0,1,1.614.717,3.125,3.125,0,0,1,.635,2.167v4.1h-1.331v-4.1a2.073,2.073,0,0,0-.348-1.286,1.189,1.189,0,0,0-.983-.446,2.049,2.049,0,0,0-1.552.86Zm5.955,8.322V169.215h2.33a4.074,4.074,0,0,1,2.781.9,3.183,3.183,0,0,1,.983,2.457,3.465,3.465,0,0,1-.922,2.494,3.168,3.168,0,0,1-2.38.979,3.773,3.773,0,0,1-1.409-.287v3.625Zm2.289-8.916h-.913v4.1a2.678,2.678,0,0,0,1.27.307,2.047,2.047,0,0,0,1.532-.655,2.576,2.576,0,0,0,.307-2.822,1.712,1.712,0,0,0-.758-.737,3.278,3.278,0,0,0-1.429-.225Zm8.486-1.27a3.479,3.479,0,0,1,2.556,1,3.278,3.278,0,0,1,1.024,2.457,3.1,3.1,0,0,1-1.036,2.412,3.582,3.582,0,0,1-2.6.962,3.428,3.428,0,0,1-2.482-5.877,3.634,3.634,0,0,1,2.58-.983Zm0,1.229a2.05,2.05,0,0,0-1.573.631,2.183,2.183,0,0,0-.614,1.6,2.047,2.047,0,0,0,.635,1.577,2.223,2.223,0,0,0,1.614.614,2.173,2.173,0,0,0,1.6-.635,2.22,2.22,0,0,0-1.638-3.784Zm13.4-1.184H969.3l-2.961,6.832h-.479l-2.048-4.685-2.048,4.685h-.442l-2.961-6.832h1.409l1.761,4.1,1.716-4.1h.975l1.7,4.1,1.761-4.1Zm7.823,3.408h-4.739a2.323,2.323,0,0,0,.655,1.556,2.165,2.165,0,0,0,1.536.573,4.094,4.094,0,0,0,2.433-.819v1.307a4.5,4.5,0,0,1-2.638.758,3.2,3.2,0,0,1-1.8-.471,3.423,3.423,0,0,1-1.1-1.229,3.889,3.889,0,0,1-.41-1.8,3.491,3.491,0,0,1,.881-2.494,2.869,2.869,0,0,1,2.249-.962,2.7,2.7,0,0,1,2.048.922,3.778,3.778,0,0,1,.8,2.515v.168Zm-4.706-.795h3.375a1.893,1.893,0,0,0-.471-1.229,1.527,1.527,0,0,0-1.147-.41,1.64,1.64,0,0,0-1.167.41,2.049,2.049,0,0,0-.59,1.229Zm7.573-2.666v1.515h0c.635-1.036,1.29-1.556,1.925-1.556a2.361,2.361,0,0,1,1.577.758l-.7,1.167a2.05,2.05,0,0,0-1.29-.655,1.4,1.4,0,0,0-1.122.614,2.348,2.348,0,0,0-.471,1.45v3.539H977.14v-6.823Z" transform="translate(-145.489 -122.117)" fill="#fff" fill-rule="evenodd"/>
    <path id="Path_26188" data-name="Path 26188" d="M713.831,50.3l-2.8,4.829c-5.218,8.63-13.806,18.05-23.071,22.5-.963.446-1.679.8-2.638,1.184a24.792,24.792,0,0,0-2.76,1.147,74.129,74.129,0,0,0,44.749-26.589C737.045,41.61,747.067,22.508,745.715.944c-1.347-20.724-13.106-36.324-30.492-40.707-18.631-4.681-32.724,3.686-42.808,17.12a34.734,34.734,0,0,0-3.313,5.279c13.7-6.873,30.087-9.9,43.914.123,12.025,8.752,15.645,26.319,12.516,41.661A70.109,70.109,0,0,1,715.51,47.614a31.737,31.737,0,0,0-1.757,2.7Z" transform="translate(-30.148)" fill="#fff" fill-rule="evenodd"/>
    <path id="Path_26189" data-name="Path 26189" d="M649.574,122.311c-1.266.9-6.279-.651-7.565-.876a25.637,25.637,0,0,0,11.349,3.436c5.689.324,8.191-.676,13.008-1.679a24.977,24.977,0,0,1,2.76-1.147c.962-.389,1.679-.737,2.638-1.184,9.264-4.4,17.857-13.847,23.071-22.5l2.8-4.886c.328-.983,1.036-2.289,1.495-3.334,3.723-8.6,6.463-18.406,5.623-27.879a35.145,35.145,0,0,0-4.395-15.113,31.3,31.3,0,0,0-39.842-12.287c-8.015,3.535-13.106,9.3-17.28,16.526-.573.983-1.024,2.048-1.556,2.986a27.861,27.861,0,0,0,3.424-1.679,43.679,43.679,0,0,1,12.037-3.944c11.5-1.884,23.6,1.818,29.489,11.718,2.76,4.665,3.539,11.329,2.867,17.673a61.174,61.174,0,0,1-12.447,29.837,54.242,54.242,0,0,1-5.12,5.484,45.457,45.457,0,0,1-5.939,4.477c-3.965,2.457-11.943,5.46-16.358,4.276Z" transform="translate(-13.958 -43.152)" fill="#fff" fill-rule="evenodd"/>
    <path id="Path_26190" data-name="Path 26190" d="M628.093,181.462c1.286.225,6.3,1.777,7.565.881a6.142,6.142,0,0,1-4.1-3.784c-2.334-5.419-.369-15.318.958-20.654,1.036-4.3,2.208-8.191,3.539-12.4l4.1-11.82L624,133.768a86.6,86.6,0,0,0-3.686,12.287C617.632,157.113,614.737,176.228,628.093,181.462Z" transform="translate(0 -103.183)" fill="#fff" fill-rule="evenodd"/>
    <path id="Path_26191" data-name="Path 26191" d="M631.48,102.583l1.167,1.286a12.626,12.626,0,0,1,2.945-2.208,9.83,9.83,0,0,1,8.6,0,9.46,9.46,0,0,1,1.638,1,18.652,18.652,0,0,0,1.495,1.229l1.184-1.208a10.245,10.245,0,0,0-3.457-2.679,11.6,11.6,0,0,0-10.1,0,10.239,10.239,0,0,0-3.477,2.679Z" transform="translate(-7.93 -82.615)" fill="#fff" fill-rule="evenodd"/>
    <path id="Path_26192" data-name="Path 26192" d="M636.542,109.233l1.2,1.347c1.208-.651,3.784-3.6,8.191-1.593a5.642,5.642,0,0,1,2.175,1.573l1.4-1.565a9.54,9.54,0,0,0-6.5-2.7,8.39,8.39,0,0,0-6.381,2.945Z" transform="translate(-10.923 -87.011)" fill="#fff" fill-rule="evenodd"/>
    <path id="Path_26193" data-name="Path 26193" d="M642.132,116.249l1.306,1.024a2.174,2.174,0,0,0,.328-.246,4.388,4.388,0,0,1,2.457-.881c1.8,0,2.187.758,3.33,1.331l.942-1.229a5.624,5.624,0,0,0-7.945-.357h0a4.23,4.23,0,0,0-.356.356Z" transform="translate(-14.224 -91.808)" fill="#fff" fill-rule="evenodd"/>
    <path id="Path_26194" data-name="Path 26194" d="M647.042,122.887l2.253,2.33,2.048-2.224c-1.511-1.413-2.617-1.29-4.251,0Z" transform="translate(-17.123 -96.272)" fill="#fff" fill-rule="evenodd"/>
    <path id="Path_26195" data-name="Path 26195" d="M870.157,110.779c8.408-.795,5.664,8.191,2.048,10.239a11.419,11.419,0,0,1-5.664.7l3.686-11.005ZM862.3,124.524c2.638,0,8.306.348,10.37-.512,5.992-2.535,7.733-11.226,4.706-14.478-2.048-2.048-6.729-1.532-9.612-1.577Z" transform="translate(-144.22 -87.977)" fill="#fff" fill-rule="evenodd"/>
    <path id="Path_26196" data-name="Path 26196" d="M916.021,133.584c2.048-.635,4.64,1.614,1.7,2.187S912.794,134.575,916.021,133.584Zm3.354-9.9c2.457-.819,1.552,3.109.2,3.686s-2.048-.123-1.761-1.536.635-1.839,1.556-2.048Zm-3.354,5.05c-1.065.287-1.778.635-2.048,1.474a2.047,2.047,0,0,0,.7,2.576c-2.781,1.036-3.637,2.949-2.392,4.214,2.048,2.048,10.923,1.147,9.42-4.1-.7-2.457-4.378-1.47-5.009-2.72.59-1.409,2.048.307,4.948-1.638a5.225,5.225,0,0,0,1.925-4.767h1.6l.655-2.367c-3.723-.491-9.166-.553-10.51,3.477a4.411,4.411,0,0,0-.168,2.249,1.671,1.671,0,0,0,.348.8l.614.819Z" transform="translate(-173.398 -95.799)" fill="#fff" fill-rule="evenodd"/>
    <path id="Path_26197" data-name="Path 26197" d="M1086.058,122.139c-4.538.983-3.723-5.971,1.945-5.734A36.536,36.536,0,0,1,1086.058,122.139Zm3.027-8.6c-4.1.266-7.483.856-8.711,5.705-1.429,5.734,3.58,6.143,7.995,5.324l5.423-16.362h-2.928Z" transform="translate(-272.83 -88.139)" fill="#fff" fill-rule="evenodd"/>
    <path id="Path_26198" data-name="Path 26198" d="M985.126,123.9c-.348,1.429-.922,2.867-1.372,4.313-.328,1.065-.369,1.126-1.311,1.536-3.375,1.491-2.576-2.371-1.229-4.1a3.822,3.822,0,0,1,3.928-1.737Zm-2.638,7.606a.489.489,0,0,1,0,.287v.573h2.781l3.686-10.882a12.571,12.571,0,0,0-6.872.287c-6.872,2.617-6.729,14.335.43,9.756Z" transform="translate(-211.962 -95.775)" fill="#fff" fill-rule="evenodd"/>
    <path id="Path_26199" data-name="Path 26199" d="M1130.573,123.785c-.286,1.372-.942,2.961-1.372,4.337a2.31,2.31,0,0,1-2.743,1.774h0a2.259,2.259,0,0,1-.6-.221c-1-1.106.246-6.143,4.726-5.89Zm-2.666,7.63v.856h2.724l3.661-10.817a9.306,9.306,0,0,0-10.739,3.551c-2.433,4.214-.839,9.92,4.313,6.422Z" transform="translate(-297.813 -95.658)" fill="#fff" fill-rule="evenodd"/>
    <path id="Path_26200" data-name="Path 26200" d="M1048.322,132.394h2.887l1.88-5.558a5.177,5.177,0,0,0,.184-.594,2.048,2.048,0,0,1,1.167-1.638c2.576-1.884,2.961-.741,2.367,1.184l-2.048,6.647h2.719l2.412-7.057a2.09,2.09,0,0,1,.164-.635c.328-1.552.164-3.17-1.331-3.477a6.018,6.018,0,0,0-4.1,1.249l.287-1.065h-2.867l-3.661,11.025Z" transform="translate(-254.053 -95.842)" fill="#fff" fill-rule="evenodd"/>
    <path id="Path_26201" data-name="Path 26201" d="M961.51,118.335h-2.048l-.881,2.412h1.925c-.328,1.773-5.6,11.226,3.256,8.191l.553-2.822a7.022,7.022,0,0,1-1.7.532c-1.945-.164.442-4.747.819-5.787h2.228l.8-2.437h-2.048l.819-2.289h-2.949l-.795,2.289Z" transform="translate(-201.067 -92.821)" fill="#fff" fill-rule="evenodd"/>
    <path id="Path_26202" data-name="Path 26202" d="M1033.142,124.592l3.068.041,5.541-16.567h-3.129l-5.476,16.526Z" transform="translate(-245.09 -88.057)" fill="#fff" fill-rule="evenodd"/>
    <path id="Path_26203" data-name="Path 26203" d="M1003.932,124.592l2.867.041,5.521-16.567H1009.4l-5.46,16.526Z" transform="translate(-227.843 -88.057)" fill="#fff" fill-rule="evenodd"/>
    <path id="Path_26204" data-name="Path 26204" d="M901.8,126.213h2.924l3.518-11.169H905.32Zm6.422-15.727c.8,0,1.29.754,1.065,1.716a2.048,2.048,0,0,1-1.843,1.7c-.819,0-1.286-.758-1.081-1.7A2.048,2.048,0,0,1,908.224,110.486Z" transform="translate(-167.542 -89.485)" fill="#fff" fill-rule="evenodd"/>
    <path id="Path_26205" data-name="Path 26205" d="M941.212,126.213h2.924l3.62-11.226h-2.928Zm6.418-15.727c.819,0,1.29.754,1.065,1.716a2.048,2.048,0,0,1-1.839,1.7c-.8,0-1.29-.758-1.085-1.7a2.048,2.048,0,0,1,1.859-1.716Z" transform="translate(-190.811 -89.485)" fill="#fff" fill-rule="evenodd"/>
    <path id="Path_26206" data-name="Path 26206" d="M1106.042,126.125h2.945l3.58-11.226h-2.945Zm6.524-15.789c.819,0,1.286.758,1.085,1.72a2.047,2.047,0,0,1-1.864,1.7c-.819,0-1.286-.758-1.061-1.7A2.048,2.048,0,0,1,1112.566,110.336Z" transform="translate(-288.132 -89.397)" fill="#fff" fill-rule="evenodd"/>
    <path id="Path_26207" data-name="Path 26207" d="M1025.959,152.716h-85v1.122h85Z" transform="translate(-190.663 -114.419)" fill="#fff" fill-rule="evenodd"/>
    <path id="Path_26208" data-name="Path 26208" d="M878.507,152.716H861.162v1.122h17.345Z" transform="translate(-143.547 -114.419)" fill="#fff" fill-rule="evenodd"/>
  </g>
</svg>
